<svg width="32" height="32" viewBox="0 0 32 32" fill="none" xmlns="http://www.w3.org/2000/svg">
<g clip-path="url(#clip0_824_175689)">
<mask id="mask0_824_175689" style="mask-type:luminance" maskUnits="userSpaceOnUse" x="-1" y="-1" width="33" height="33">
<path d="M-0.000732422 -0.000488281H31.9993V31.9995H-0.000732422V-0.000488281Z" fill="white"/>
</mask>
<g mask="url(#mask0_824_175689)">
<path d="M30.3135 22.7385C30.3135 23.6319 29.9586 24.4886 29.3269 25.1203C28.6952 25.752 27.8384 26.1069 26.945 26.1069H5.05031C4.15694 26.1069 3.30017 25.752 2.66847 25.1203C2.03677 24.4886 1.68188 23.6319 1.68188 22.7385V6.15999C1.68188 4.29978 6.55852 0.843777 8.41873 0.843777H25.7871C28.3926 0.843777 30.3135 2.79157 30.3135 5.37009V22.7385Z" fill="#F4900C"/>
<path d="M28.6272 26.1057C28.6272 26.9991 28.2723 27.8558 27.6406 28.4875C27.0089 29.1192 26.1521 29.4741 25.2588 29.4741H6.73244C5.83908 29.4741 4.9823 29.1192 4.3506 28.4875C3.7189 27.8558 3.36401 26.9991 3.36401 26.1057V5.89518C3.36401 2.42654 3.34633 2.52675 7.57454 2.52675H25.2588C26.1521 2.52675 27.0089 2.88164 27.6406 3.51334C28.2723 4.14504 28.6272 5.00181 28.6272 5.89518V26.1057Z" fill="#CCD6DD"/>
<path d="M26.945 26.9478C26.945 27.6178 26.6789 28.2604 26.2051 28.7342C25.7313 29.208 25.0887 29.4741 24.4187 29.4741H4.2082C3.53818 29.4741 2.8956 29.208 2.42183 28.7342C1.94805 28.2604 1.68188 27.6178 1.68188 26.9478V6.73728C1.68188 6.06726 1.94805 5.42468 2.42183 4.9509C2.8956 4.47713 3.53818 4.21096 4.2082 4.21096H24.4187C25.0887 4.21096 25.7313 4.47713 26.2051 4.9509C26.6789 5.42468 26.945 6.06726 26.945 6.73728V26.9478Z" fill="#E1E8ED"/>
<path d="M26.9469 27.7903C26.9469 28.6836 26.592 29.5404 25.9603 30.1721C25.3286 30.8038 24.4719 31.1587 23.5785 31.1587H5.8943C5.00094 31.1587 4.14417 30.8038 3.51247 30.1721C2.88077 29.5404 2.52588 28.6836 2.52588 27.7903V9.26396C2.52588 8.3706 2.88077 7.51382 3.51247 6.88212C4.14417 6.25042 5.00094 5.89553 5.8943 5.89553H23.5785C24.4719 5.89553 25.3286 6.25042 25.9603 6.88212C26.592 7.51382 26.9469 8.3706 26.9469 9.26396V27.7903Z" fill="#F4900C"/>
<path d="M25.2627 27.7903C25.2627 28.6836 24.9078 29.5404 24.2761 30.1721C23.6444 30.8038 22.7877 31.1587 21.8943 31.1587H5.8943C5.00094 31.1587 4.14417 30.8038 3.51247 30.1721C2.88077 29.5404 2.52588 28.6836 2.52588 27.7903V10.9482C2.52588 10.0548 2.88077 9.19803 3.51247 8.56633C4.14417 7.93463 5.00094 7.57974 5.8943 7.57974H22.1764C24.0366 7.57974 25.2627 8.80585 25.2627 10.6661V27.7903Z" fill="#FFAC33"/>
<path d="M5.89241 5.89554C4.47178 5.89554 4.43473 4.27701 5.05031 3.57975C5.75094 2.78733 6.83978 2.52712 8.78757 2.52712H10.1029V0.842907H7.81325C4.47178 0.842907 1.68188 2.94817 1.68188 5.36922V27.7903C1.68188 28.6836 2.03677 29.5404 2.66847 30.1721C3.30017 30.8038 4.15694 31.1587 5.05031 31.1587H6.73452V5.89554H5.89241Z" fill="#F4900C"/>
</g>
</g>
<defs>
<clipPath id="clip0_824_175689">
<rect width="32" height="32" fill="white"/>
</clipPath>
</defs>
</svg>
