<svg xmlns="http://www.w3.org/2000/svg" enable-background="new 0 0 2996.07 2494.13" viewBox="0 0 2996.07 2494.13" id="reading-book">
  <switch>
    <g>
      <rect width="5320" height="3547" x="-1080.61" y="-586.16" fill="#fff" display="none"></rect>
      <path fill="#e3fff5" d="M173.2,2354.11c-88.45-54.51-131.47-217.49-139-246c-1.6-6.06-2.67-10.49-2.98-11.77
						c-14.66-59.83-61.58-284.47,58.25-404.41c77.2-77.27,151.69-39.21,247.86-97.73c197.37-120.1,191.79-437.17,190.92-488.64
						c-3.5-205.43-89.8-224.34-92.67-375.18c-5.69-299.3,326.39-628.29,692.21-709.92c316.84-70.71,578.75,62.03,638.62,94.36
						c279.03,150.64,251.51,323.64,593.96,680.72c348.82,363.72,498.27,310.29,589.49,539.18
						c141.62,355.36-59.85,882.5-365.08,1007.6c-117.6,48.2-162.64,0.67-676.58,13.48c-180.34,4.5-155.07,9.86-358.38,16.85
						c-879.54,30.25-926.3-84.73-1189.03-13.48C322.15,2369.63,239.32,2394.85,173.2,2354.11z"></path>
      <path fill="#026362" d="M416.41,2379.43c-55.61-25.29-85.76-56.58-103.11-81c-17.84-25.11-18.95-38.46-40.96-62.53
							c-35.46-38.78-59.35-33.4-83.33-59.68c-48.51-53.15-29.02-160.83-8.47-164.84c11.23-2.19,17.65,27.61,49.43,68.21
							c44.29,56.57,90.43,73.56,132.77,100.89c43.79,28.28,100.86,78.83,151.13,176.21L416.41,2379.43z"></path>
      <path fill="#028280" d="M476.2,2363.32c-34.15-19.5-80.35-53.51-96.04-108c-16.01-55.59,15.02-79.41-5.65-129.32
							c-22.33-53.89-69.5-52.6-108.76-119.37c-18.07-30.72-25.11-59.96-28.25-78.16c28.36-0.99,73,1.96,119.35,25.58
							c20.36,10.37,47.67,24.3,68.5,55.42c26.84,40.11,4.16,63.79,24.01,100.89c27.04,50.56,82.11,37.43,120.05,81
							c20.45,23.48,39.9,67.97,21.19,160.58L476.2,2363.32z"></path>
      <path fill="#026362" d="M2359.7,2353.37c34.15-19.5,80.35-53.51,96.04-108c16.01-55.59-15.02-79.41,5.65-129.32
							c22.33-53.89,69.5-52.6,108.76-119.37c18.07-30.72,25.11-59.96,28.25-78.16c-28.36-0.99-73,1.96-119.35,25.58
							c-20.36,10.37-47.67,24.3-68.5,55.42c-26.84,40.11-4.16,63.79-24.01,100.89c-27.04,50.56-82.11,37.43-120.05,81
							c-20.45,23.48-39.9,67.97-21.19,160.58L2359.7,2353.37z"></path>
      <path fill="#028280" d="M2426.08,2373.27c55.61-25.29,85.76-56.58,103.11-81c17.84-25.11,18.95-38.46,40.96-62.53
							c35.46-38.78,59.35-33.4,83.33-59.68c48.51-53.15,29.02-160.83,8.47-164.84c-11.23-2.19-17.65,27.61-49.43,68.21
							c-44.29,56.57-90.43,73.56-132.77,100.89c-43.79,28.28-100.86,78.83-151.13,176.21L2426.08,2373.27z"></path>
      <ellipse cx="1458.53" cy="2374.4" fill="#e6f0fa" rx="1458.53" ry="119.73"></ellipse>
      <path fill="#fddad1" d="M1180.33,1960.97l-622.17,27.74l32.58-335.06c191.98,58.94,385.87,74.74,581.3,56.09L1180.33,1960.97z"></path>
      <polygon fill="#8c4fbc" points="1153.95 1691.8 1173.44 1960.71 1228.4 1962.87 1343.8 1967.42 1883.35 1988.71 1897.28 1739.41 1336.54 1703.5 1239.98 1697.32"></polygon>
      <polygon fill="#fa991b" points="1228.4 1962.87 1343.8 1967.42 1336.54 1703.5 1239.98 1697.32"></polygon>
      <rect width="82.48" height="99.79" x="1771.57" y="1814.01" fill="#9f43fa"></rect>
      <polygon fill="#9f43fa" points="1748.6 1814.01 1392.59 1828.71 1392.59 1881.32 1748.6 1911.34"></polygon>
      <path fill="#8c4fbc" d="M1041.06,1720.21c-27.9,0-59.52-0.47-93.33-1.78c-107.91-4.18-260.81-18.07-376.41-60.5l7.14-19.7
								c216.71,79.54,572.69,58.43,576.26,58.21l1.29,20.93C1155.37,1717.41,1109.41,1720.21,1041.06,1720.21z"></path>
      <g>
        <polygon fill="#b3121c" points="1158.12 1967.2 2091.67 1975.14 2091.67 1952.73 1158.12 1944.79"></polygon>
        <path fill="#990f18" d="M564.09,2232.01c0,0-91.35-98.61-3.65-230.27l567.95-41.78l963.28,15.17l-44.2,18.91l-910.73,16.11
								l45.87,210.26L564.09,2232.01z"></path>
        <path fill="#fddad1" d="M595.24,2232.01c0,0-72.39-104.22-6.96-221.86l515.05-32.68l929.77,16.83l-11.03,237.71l-930.12-28.73
								L595.24,2232.01z"></path>
        <polygon fill="#b3121c" points="1158.12 2231.43 2091.21 2248.13 2091.21 2225.72 1158.12 2200.98"></polygon>
        <polygon fill="#fa1928" points="554.17 2010.15 1158.12 1966.74 1158.12 1944.79 554.17 1988.21"></polygon>
        <polygon fill="#fa1928" points="551.23 2239.84 1158.12 2232.39 1158.12 2200.98 553.29 2222.1"></polygon>
        <path fill="#fa1928" d="M560.44,2009.7c0,0-62.7,124.08,3.65,212.31l-12.87,17.83c0,0-77.09-118.35,2.95-251.63L560.44,2009.7z
								"></path>
        <path fill="#dec3bc" d="M1156.23,1978.43c0,0-60.25,96.85,1.89,222.55l864.33,22.92l10.65-229.6L1156.23,1978.43z"></path>
      </g>
      <g>
        <path fill="#fddad1" d="M706.97,2239.27c0,0,21.92,86.48,5.22,137.95l668.52-15.41c0,0,66.66-82.64-10.2-121.96L706.97,2239.27z
								"></path>
        <path fill="#df113e" d="M1365.39,2375.59l176.84,4.48l23.88,0.61l405.61,10.27l24.05,0.61l83.39,2.11
								c24.98-51.24,27-100.81,0-148.22l-83.25-2.11l-23.83-0.6l-406.81-10.31l-24.09-0.61l-175.79-4.46
								C1386.71,2271.75,1383.06,2322.03,1365.39,2375.59z"></path>
        <path fill="#fcb230" d="m1542.23 2380.06 23.88.61c7.34-49.41 7.06-98.83-.84-148.25l-24.09-.61C1552.6 2279.49 1552.48 2328.99 1542.23 2380.06zM1971.72 2390.95l24.05.61c7.67-49.41 7.72-98.82.14-148.22l-23.83-.6C1982.96 2290.4 1982.38 2339.88 1971.72 2390.95z"></path>
        <polygon fill="#eb1241" points="681.91 2251.17 1375.14 2251.17 1365.39 2227.36 681.91 2227.36"></polygon>
        <polygon fill="#eb1241" points="688.41 2389.24 1375.16 2375.04 1377.89 2351.18 688.41 2365.44"></polygon>
      </g>
      <g>
        <polygon fill="#ed4c29" points="1440.2 1483.53 1440.28 1487.43 1912.4 1584.1 1864.14 2386.02 1438.48 2386.02 1421.25 1483.53"></polygon>
        <polygon fill="#ed6d29" points="1931.35 1584.1 1440.2 1483.53 1457.44 2386.02 1883.1 2386.02"></polygon>
        <polygon fill="#fedfd0" points="1714.21 1503.76 1466.63 1503.76 1503.39 2366.08 1731.35 2369.54"></polygon>
        <polygon fill="#ed4c29" points="1714.21 1483.53 1714.29 1487.43 2186.41 1584.1 2138.16 2397.29 1712.49 2374.75 1695.26 1483.53"></polygon>
        <polygon fill="#ed6d29" points="1714.21 1483.54 1727.82 2187.58 1731.44 2374.75 2157.11 2397.29 2205.36 1584.1 2034.89 1549.19"></polygon>
        <path fill="#de6628" d="M1727.82,2187.58l3.62,187.17l425.67,22.54l48.24-813.19l-170.47-34.92l6.12,304.25
								C2044.6,2032.09,1905.3,2180.71,1727.82,2187.58L1727.82,2187.58z"></path>
        <polygon fill="#edb479" points="1838.19 1621.28 1841.42 1941.97 2029.67 1943.14 2096.78 1943.56 2108.04 1668 2037.03 1655.7"></polygon>
        <polygon fill="#edb479" points="1838.19 1984.64 1838.19 2041.84 1975.17 2059.59 2108.04 2076.8 2108.04 1998.5 2013.49 1993.63"></polygon>
        <rect width="8.68" height="104.61" x="1555.66" y="1503.76" fill="#d1ae8a"></rect>
        <rect width="8.68" height="192.46" x="1521.2" y="1571.09" fill="#d1ae8a"></rect>
        <rect width="8.68" height="242.46" x="1594.64" y="1697.96" fill="#d1ae8a"></rect>
        <rect width="8.68" height="251.53" x="1531.11" y="1867.53" fill="#d1ae8a" transform="rotate(-1.765 1537.008 1995.26)"></rect>
        <rect width="8.68" height="201.47" x="1665.36" y="2167.22" fill="#d1ae8a" transform="rotate(-1.621 1668.237 2264.556)"></rect>
        <rect width="8.68" height="252.14" x="1613.11" y="2030.71" fill="#d1ae8a"></rect>
        <g>
          <rect width="8.68" height="290.16" x="1648.15" y="1582.35" fill="#d1ae8a" transform="rotate(-.682 1649.295 1724.133)"></rect>
        </g>
        <g>
          <path fill="#e0aa73" d="M2096.78,1943.56l11.27-275.56l-71.01-12.3c0,0,25.48,155.47-7.36,287.44L2096.78,1943.56z"></path>
        </g>
        <g>
          <path fill="#e0aa73" d="M1975.17,2059.59l132.87,17.21v-78.31l-94.55-4.86C2003.65,2017.92,1991.09,2040.38,1975.17,2059.59z"></path>
        </g>
      </g>
      <g>
        <path fill="#521807" d="M1176.83,1186.05c-20.95-5.83-57.58-16.57-85.09-50.59c-29.81-36.86-46.78-98.4-23.21-129.4
							c12.46-16.38,31.28-17.72,35.78-36c3.79-15.4-7.5-25.18-13.86-41.83c-14.25-37.3,2.41-89.34,32.98-119.02
							c37.21-36.11,87.71-32,114.32-29.84c18.87,1.54,58.04,4.56,93.45,58.9c15.98,24.52,20.03,65.75,20.84,80.34
							c6.83,1.34,80.92,43.52,98.99,102.23c20.79,67.54-65.28,153.53-93.78,173.36C1343.02,1204.11,1293.13,1218.42,1176.83,1186.05
							z"></path>
        <path fill="#3a60a1" d="M736.07,1971.76c0,0-75.77,10.38-145.66,39.56c-69.89,29.18-98.31,96.39-87.26,137.58l261.4-70.99
									C764.55,2077.91,775.95,2010.22,736.07,1971.76z"></path>
        <path fill="#fec3b4" d="M612.77,2010.34l-7.22-57.34l116.89-28.97l15.51,52.31C737.95,1976.34,692,2015.64,612.77,2010.34z"></path>
        <path fill="#f6faff" d="M501.56,2118.95c10.6,3.18,217.92-38.69,264.28-71.77c6.48,10.34,7.06,19.64,6.2,28.69
									c-85.24,33.64-179.57,60.94-268.9,73.03C503.15,2148.9,498.87,2132.71,501.56,2118.95z"></path>
        <path fill="#132036" d="M750.81 2060.05c-1.59 0-3.06-1.02-3.57-2.63-7.84-24.83-8.52-42.54-2.02-52.64 4.15-6.46 9.69-7.28 10.31-7.35 2.04-.24 3.92 1.24 4.15 3.31.23 2.04-1.2 3.89-3.21 4.17-.23.04-2.93.61-5.15 4.26-2.81 4.64-6.15 16.77 3.06 45.97.63 1.98-.47 4.11-2.44 4.74C751.57 2060 751.19 2060.05 750.81 2060.05zM573.43 2070.92c-.95 0-1.91-.36-2.64-1.09-21.29-21.22-34.08-17.22-34.2-17.17-1.94.73-4.1-.26-4.82-2.21-.73-1.95.26-4.12 2.19-4.85.69-.26 17.1-6.05 42.11 18.88 1.47 1.47 1.48 3.85.03 5.33C575.36 2070.55 574.39 2070.92 573.43 2070.92zM584.19 2059.56c-.95 0-1.91-.36-2.64-1.09-21.21-21.14-34.14-17.19-34.27-17.15-1.94.73-4.06-.27-4.79-2.22-.73-1.95.29-4.14 2.23-4.87.69-.26 17.1-6.06 42.11 18.88 1.47 1.47 1.48 3.85.03 5.33C586.12 2059.19 585.15 2059.56 584.19 2059.56z"></path>
        <path fill="#132036" d="M594.61,2050.48c-0.95,0-1.91-0.36-2.64-1.09c-21.29-21.22-34.08-17.21-34.2-17.17
									c-1.94,0.74-4.1-0.26-4.82-2.21c-0.73-1.95,0.26-4.12,2.19-4.85c0.69-0.26,17.1-6.05,42.11,18.88
									c1.47,1.47,1.48,3.85,0.03,5.33C596.54,2050.11,595.58,2050.48,594.61,2050.48z"></path>
        <path fill="#132036" d="M563.34,2028.19c-8.75,0-16.48-3.24-21.19-8.57c-5.68-6.41-7.78-17.2,3.39-28.23
									c5.52-5.46,11.48-7.62,17.72-6.4c15.81,3.08,26.73,27.89,27.19,28.95l1.14,2.63l-2.22,1.81
									C580.91,2025.25,571.66,2028.19,563.34,2028.19z M559.97,1992.21c-3.07,0-6.09,1.5-9.18,4.56
									c-6.39,6.31-7.5,12.81-3.04,17.84c5.71,6.45,20.53,9.53,34.57-0.32c-3.67-7.3-11.79-20.2-20.49-21.89
									C561.2,1992.27,560.58,1992.21,559.97,1992.21z"></path>
        <path fill="#132036" d="M630.1,2029.65c-16.63,0-47.14-2.99-51.4-13.5c-0.85-2.1-1.47-6.3,3.99-10.83
									c2.97-2.47,29.28-23.85,45.62-20.1c17.77,4.09,22.66,30.8,20.97,38.54c-0.91,4.13-6.28,5.15-11.95,5.64
									C635.48,2029.56,633,2029.65,630.1,2029.65z M585.63,2013.31c0.01,0,0.55,1.37,4.87,3.14c14.4,5.91,45.26,6.89,51.62,4.59
									c0.65-7.08-3.99-25.82-15.48-28.47c-10.83-2.51-31.95,12.55-39.18,18.56l0,0C586.02,2012.33,585.65,2013.13,585.63,2013.31
									L585.63,2013.31z M585.08,2008.23h0.01H585.08z"></path>
        <path fill="#132036" d="M624.41,2039.66c-0.92,0-1.85-0.34-2.57-1.03c-15.86-15.04-35.42-19.45-35.62-19.5
									c-2.02-0.44-3.31-2.45-2.87-4.48c0.44-2.04,2.44-3.33,4.45-2.89c0.88,0.19,21.75,4.85,39.18,21.38
									c1.51,1.43,1.58,3.81,0.16,5.33C626.4,2039.26,625.4,2039.66,624.41,2039.66z"></path>
        <path fill="#132036" d="M538.61,2027.73c-1.05,0-2.09-0.44-2.83-1.3c-1.36-1.57-1.19-3.95,0.37-5.32
									c25.29-22.12,50-7.07,50.24-6.91c1.76,1.1,2.29,3.43,1.2,5.19c-1.09,1.76-3.4,2.31-5.15,1.21
									c-0.85-0.52-20.38-12.16-41.37,6.2C540.36,2027.43,539.49,2027.73,538.61,2027.73z"></path>
        <path fill="#3a60a1" d="M896.55,1975.03c0,0-75.09,14.58-143.26,47.6c-68.17,33.02-92.86,101.71-79.57,142.23l257.1-85.43
									C930.82,2079.44,938.48,2011.22,896.55,1975.03z"></path>
        <path fill="#fec3b4" d="M775.56,2020.42l-10.36-56.85l115.12-35.43l18.37,51.37C898.68,1979.51,854.96,2021.31,775.56,2020.42
									z"></path>
        <path fill="#132036" d="M915.92 2062.38c-1.51 0-2.94-.93-3.5-2.43-9.19-24.36-10.84-42-4.92-52.45 3.79-6.68 9.28-7.81 9.89-7.91 2.04-.36 3.98 1.02 4.33 3.08.35 2.03-.98 3.95-2.98 4.34-.22.05-2.9.77-4.9 4.54-2.55 4.79-5.22 17.09 5.58 45.73.73 1.95-.24 4.12-2.17 4.86C916.81 2062.3 916.36 2062.38 915.92 2062.38zM739.4 2083.1c-.88 0-1.77-.31-2.49-.95-22.43-20.01-34.97-15.29-35.09-15.24-1.89.84-4.11-.03-4.94-1.93-.83-1.91.03-4.13 1.92-4.97.67-.3 16.74-7 43.08 16.5 1.55 1.38 1.69 3.77.32 5.32C741.47 2082.67 740.44 2083.1 739.4 2083.1zM749.52 2071.17c-.88 0-1.77-.31-2.49-.95-22.34-19.92-35.03-15.26-35.16-15.21-1.89.84-4.07-.04-4.9-1.95-.83-1.91.06-4.15 1.96-4.98.67-.3 16.74-7 43.08 16.5 1.55 1.38 1.69 3.77.32 5.32C751.58 2070.74 750.55 2071.17 749.52 2071.17z"></path>
        <path fill="#132036" d="M759.43,2061.52c-0.88,0-1.77-0.31-2.49-0.95c-22.43-20.01-34.97-15.3-35.09-15.24
									c-1.89,0.84-4.11-0.03-4.94-1.93c-0.83-1.91,0.03-4.13,1.92-4.97c0.67-0.3,16.74-7,43.08,16.5
									c1.55,1.38,1.69,3.77,0.32,5.32C761.5,2061.09,760.47,2061.52,759.43,2061.52z"></path>
        <path fill="#132036" d="M725.25,2041.05c-7.96,0-15.06-2.75-19.69-7.43c-6.03-6.09-8.71-16.74,1.83-28.38
									c5.22-5.76,11.05-8.25,17.34-7.37c15.95,2.2,28.22,26.36,28.74,27.39l1.29,2.57l-2.12,1.93
									C743.94,2037.66,734.07,2041.05,725.25,2041.05z M722.37,2005.24c-3.26,0-6.36,1.67-9.44,5.08
									c-6.03,6.66-6.78,13.21-2.06,17.98c6.06,6.11,21.02,8.37,34.5-2.24c-4.07-7.09-12.88-19.51-21.66-20.72
									C723.26,2005.27,722.81,2005.24,722.37,2005.24z"></path>
        <path fill="#132036" d="M784.63,2038.98c-16.81,0-38.74-2.32-42.77-10.86c-0.97-2.05-1.81-6.21,3.39-11.03l0,0
									c2.81-2.61,27.92-25.46,44.45-22.61c17.96,3.1,24.32,29.49,23.05,37.31c-0.68,4.18-5.99,5.49-11.62,6.29
									C797.54,2038.59,791.52,2038.98,784.63,2038.98z M748.63,2024.9c0.01,0,0.62,1.34,5.03,2.87c14.7,5.1,45.57,4.36,51.79,1.71
									c0.26-7.11-5.41-25.56-17.02-27.56c-10.96-1.89-31.21,14.31-38.1,20.71l0,0C748.96,2023.9,748.63,2024.71,748.63,2024.9
									L748.63,2024.9z M747.79,2019.85h0.01H747.79z"></path>
        <path fill="#132036" d="M788.58,2049.05c-0.85,0-1.71-0.29-2.41-0.89c-16.73-14.2-36.43-17.46-36.63-17.49
									c-2.04-0.32-3.44-2.25-3.12-4.31c0.32-2.06,2.24-3.45,4.29-3.14c0.89,0.14,21.98,3.63,40.3,19.17
									c1.58,1.34,1.78,3.72,0.45,5.31C790.71,2048.6,789.65,2049.05,788.58,2049.05z"></path>
        <path fill="#132036" d="M702.27,2041.92c-0.98,0-1.95-0.38-2.69-1.14c-1.44-1.49-1.41-3.88,0.08-5.33
									c24.03-23.49,49.53-9.84,49.78-9.7c1.81,1,2.48,3.29,1.48,5.12c-0.99,1.82-3.27,2.49-5.08,1.5
									c-0.87-0.47-21.01-11.02-40.97,8.49C704.15,2041.57,703.21,2041.92,702.27,2041.92z"></path>
        <path fill="#f6faff" d="M670.5,2135.05c10.75,2.58,215.46-50.75,259.93-86.37c7.04,9.96,8.13,19.22,7.77,28.31
									c-83.26,38.34-175.95,70.83-264.48,87.88C673.72,2164.87,668.56,2148.94,670.5,2135.05z"></path>
        <g>
          <path fill="#fe4b17" d="M1126.93,1562.68c-71.31,91.69-392.18,37.85-392.18,37.85l35.86,324.83c-2.95,2.11-6,4.1-9.14,5.97
								c-61.97,37.11-157.44,29.89-157.44,29.89c-3.75-3.19-7.38-7.08-10.9-11.6c-68.98-88.81-92.42-421.99-20.8-483.78
								c75.27-64.93,440.16-41.44,440.16-41.44S1198.23,1471,1126.93,1562.68z"></path>
        </g>
        <g>
          <path fill="#e04314" d="M761.47,1931.34c-61.97,37.11-157.44,29.89-157.44,29.89c-3.75-3.19-7.38-7.08-10.9-11.6
								c78.24-2.64,89.99-30.24,89.99-30.24s-43.44-191.31-43.44-290.95c0-99.64,53.84-105.16,53.84-105.16L761.47,1931.34z"></path>
        </g>
        <g>
          <path fill="#fe4b17" d="M1278.11,1504.88c0,0,0,154.44-72.62,181.35c-99.64,36.91-363.12,0-363.12,0l69.98,242.46
								c0,0-47.87,56.46-184.53,55.47c0,0-0.93-2.87-2.58-8.17c-18.7-60.06-129.72-431.34-24.16-455.15
								c114.87-25.92,307.01-13.95,356.52-45.84C1107.12,1443.1,1278.11,1504.88,1278.11,1504.88z"></path>
        </g>
        <g>
          <path fill="#fec3b4" d="M938.76,1144.84l-62.39,35.21L766.44,990c0,0,17.83-17.2,11.88-44.1s-61.4-20.33-61.4-20.33
									l7.92-60.38c0,0-65.88,47.86-61.4,110.93c3.74,52.7,29.05,52.48,29.05,52.48s101.37,264.39,158.15,285.64
									c56.78,21.26,143.58-40.53,143.58-40.53L938.76,1144.84z"></path>
          <polygon fill="#060606" points="748.62 727.68 935.24 705.1 891.23 952.87 707.23 944.56"></polygon>
          <polygon fill="#ffeee2" points="923.25 712.4 954.28 723.37 910.04 938.92 861.89 942.65 849.41 1015.53 818.6 1015.53 760.24 732.3"></polygon>
          <polygon fill="#f05d3a" points="871.46 776.52 828.79 1026.61 701.12 976.79 748.66 727.69"></polygon>
          <polygon fill="#e8d9ce" points="861.89 942.65 869.95 942.02 899.96 761.75 847.12 741.53 904.76 731.5 875.53 731.54 821.24 738.31 892.55 765.77"></polygon>
          <polygon fill="#402a1a" points="852.49 1016.07 846.33 1014.99 889.03 767.78 808.11 736.62 953.93 720.24 954.62 726.49 834.36 740 896.06 763.76"></polygon>
          <path fill="#fec3b4" d="M702.82,885.29c0,0,24.67-28.74,40.52-38.92c15.85-10.19,29.49,5.76,9.24,24.8
									c0,0,12.98-3.58,9.77,10.81c-1.06,4.75-17.26,20.19-17.26,20.19s17.61,0.44,6.16,15.5c-11.44,15.06-29.93,28.34-29.93,42.07
									c0,13.73,3.5,37.64-14.1,40.74C689.64,1003.58,653.06,933.07,702.82,885.29z"></path>
        </g>
        <g>
          <path fill="#3a609f" d="M1315.09,1089.71c0,0,67.35,45.84,52.82,238.47c0,0,10.12,23.47-103,13.29l9.44,191.31
								c0,0-228.63,31.89-268.25-61.78l31.69-231.17l-43.58,33.88c0,0-67.34-57.13-55.46-128.87c0,0,132.88-81.09,173.64-97.27
								L1315.09,1089.71z"></path>
        </g>
        <g>
          <path fill="#fec3b2" d="M1315.09,1089.71c0,0-111.58,55.14-162.41,41.85c-50.84-13.29-40.27-83.99-40.27-83.99l39.61-8.35
								l1.15-7.83l3.42-23.22l3.35-22.75l92.43-23.91l5.29,78.39L1315.09,1089.71z"></path>
        </g>
        <g>
          <path fill="#d4a294" d="M1224.21,997.4c0,0-12.5,35.81-71.04,33.99l3.42-23.22L1224.21,997.4z"></path>
        </g>
        <g>
          <path fill="#fec3b2" d="M1113.06,838.28c0,0-47.54,132.52,12.87,171.38s128.74-33.88,142.61-60.78
								c13.86-26.9,4.13-120.68-42.58-137.5C1186.4,797.13,1144.75,801.42,1113.06,838.28z"></path>
        </g>
        <g>
          <path fill="#e04314" d="M1249.73,1622.45c0,0-42.27,37.86-96.07,49.82s-245.27,26.57-290.16,0
								c-44.9-26.57-85.83-66.43-85.83-66.43l64.7,80.38c0,0,210.75,53.65,372.37-3.32
								C1214.74,1682.9,1251.71,1668.76,1249.73,1622.45z"></path>
        </g>
        <g>
          <path fill="#fec3b4" d="M1348.04,1341.26l-7.86,244.66c0,0,35.06,27.9,52.16,69.08c9.74,23.47,16.95,62,15.19,74.4
								c-1.76,12.4-16.51,19.26-30.37-2.66c0,0,14.64,43.95-28.06,40.85c0,0-22.12,38.86-37.96,3.32c0,0-25.42,21.59-38.73-4.32
								c-8.7-16.93-14.08-77.94-14.08-77.94s-17.83,11.51-21.13,22.81s-17.83,29.23-27.73,31.22c-9.9,1.99-17.83-35.21-3.96-56.46
								c5.85-8.97,44.24-63.77,44.24-63.77l-12.1-282.98L1348.04,1341.26z"></path>
        </g>
        <g>
          <path fill="#e04314" d="M912.35,1928.68c0,0-47.87,56.46-184.53,55.47c0,0-0.93-2.87-2.58-8.17c6.39-3.28,16.33-6.38,31.3-6.78
								c33.11-0.89,132.7-46.83,130.72-60.78c-1.98-13.95-79.72-265.45-79.72-265.45l34.83,43.25L912.35,1928.68z"></path>
        </g>
        <g>
          <path fill="#521807" d="M1099.71,879.46c0,0,16.37-6.37,44.66-57.66c0,0,34.59,42.76,71.98,51.84c0,0,21.92,48.64,49.64,44.75
							c27.72-3.89,10.85-47.26,6.45-62.27C1254.53,795.14,1122.04,741.67,1099.71,879.46z"></path>
        </g>
        <g>
          <path fill="#fec3b2" d="M1262.71,891.09c0,0,17.61-16.83,30.81,0c13.2,16.83-5.13,58.85-19.17,70.41
								c-10.76,8.86-25.28,5.31-25.28,5.31S1239.39,907.04,1262.71,891.09z"></path>
        </g>
      </g>
      <g>
        <path fill="#f98462" d="M2390.99,2100.38l16.94,121.45c0,0-136.66,8.97-144.58,8.97s-16.87-112.49-16.87-112.49
							S2335.53,2091.41,2390.99,2100.38z"></path>
        <path fill="#602964" d="M2251.14,2196.65c0,0,128.07-16.68,170.98,1.26c42.91,17.93,108.27,85.02,108.27,85.02
							s63.38-6.64,81.86,9.96c18.49,16.61,25.09,79.13,25.09,79.13s-382.81,15.32-386.57-13.04
							C2234.63,2237.07,2251.14,2196.65,2251.14,2196.65z"></path>
        <path fill="#f8bc50" d="M2634.05,2325.44c0,0-71.8,14.95-219.52,10.46c-147.72-4.48-173.96-10.46-173.96-10.46
							s-4.64,46.53,22.45,51.08c150.52,25.31,377.77,5.21,380.74,3.22S2634.05,2325.44,2634.05,2325.44z"></path>
        <path fill="#cfb0f5" d="M2463.39,2276.01c-1.09,0-2.17-0.41-3.02-1.23c-1.72-1.68-1.77-4.44-0.11-6.18l26.07-27.17h-71.8
							c-1.97,0-3.7-1.34-4.2-3.26c-0.5-1.92,0.35-3.94,2.07-4.91l40.93-23.21c2.08-1.18,4.74-0.44,5.91,1.66
							c1.18,2.1,0.44,4.77-1.65,5.95l-26.52,15.04h65.49c1.74,0,3.32,1.05,4,2.66c0.68,1.61,0.34,3.48-0.87,4.74l-33.18,34.58
							C2465.66,2275.56,2464.52,2276.01,2463.39,2276.01z"></path>
        <path fill="#2c4270" d="M2439.12,2150.58c0,0-16.83,5.7-42.94,11.97c-47.06,11.29-124.25,24.35-187.31,8.96l-78.57-436.4
							c0,0-0.58-1-1.61-2.82c-6.27-10.96-29.31-51.61-44.59-82.37c-17.83-35.88-30.28-276.49-30.28-276.49l186.25-29.89l142.6,381.1
							L2439.12,2150.58z"></path>
        <path fill="#f98462" d="M2323.38,1048.75l168.38-88.68c0,0,54.08,37.44,52.59,40.93c-1.49,3.49-132.96,195.61-188.77,220.62
							c-38.09,17.07-104.93-37.44-104.93-37.44L2323.38,1048.75z"></path>
        <path fill="#213254" d="M2396.18,2162.55c-47.06,11.29-124.25,24.35-187.31,8.96l-78.57-436.4c0,0-0.58-1-1.61-2.82
							c-7.34-83.15-11.57-143.88-11.57-143.88l54.88,155.03l74.47,374.87l29.3,23.4L2396.18,2162.55z"></path>
        <path fill="#f98462" d="M2543.21,1002.83c0,0,16.89-5.2,36.7-11.18c19.81-5.98,44.23-57.79,44.23-57.79
							s-40.17-19.82-60.08-23.91c-19.91-4.09-44.89,12.95-45.88,15.94c-0.99,2.99-9.05,61.44-9.05,61.44L2543.21,1002.83z"></path>
        <polygon fill="#6b9dbd" points="2585.61 776.84 2702.68 787.53 2635.54 960.07 2522.84 954.87"></polygon>
        <polygon fill="#6b9dbd" points="2585.9 776.94 2488.31 711.02 2432.37 887.56 2523.14 954.98"></polygon>
        <polygon fill="#fff" points="2581.94 780.17 2485.54 705.35 2435.53 872.14 2525.34 947.7"></polygon>
        <polygon fill="#f6fbfe" points="2580.66 779.83 2692.03 782.15 2632.01 945.2 2524.9 947.65"></polygon>
        <path fill="#f98462" d="M2482.67 991.51c0 0-8.92-61.09.96-79.06 9.88-17.97 37.9-33.49 59.86-29.11s1.47 23.71-16.96 37.75c0 0 20.04 50.26-3.14 80.83C2523.39 1001.92 2499.9 1007.4 2482.67 991.51zM2066.28 2213.19l5.45-96-123.54-7.02-7.29 106.21C1940.89 2216.37 1995.97 2245.07 2066.28 2213.19zM2134.32 838.14c0 0 16.16-14.82 29.76-3.11 13.6 11.71 4.85 51.56-24.31 55.05C2110.61 893.57 2134.32 838.14 2134.32 838.14z"></path>
        <path fill="#2c4270" d="M2095.75,1382.39c0,0,41.71,336.95,38.89,376.78c-2.81,39.83-38.89,409.34-38.89,409.34
							c-89.33,21.88-166.61,25.95-223.56,0c0,0,17.33-411,17.33-449.86c0-38.86-1.86-224.18,37.51-325.81
							C1927.02,1392.85,2024.04,1379.4,2095.75,1382.39z"></path>
        <path fill="#6457f1" d="M2280.23,1210.51c-0.03,0.01-0.04,0.01-0.04,0.01l-53.48-37.37l4.43,56.43l0.01,0.02l8.94,113.93
							c0,0-12.54,9.05-36.46,19.99c-48.78,22.29-144.9,52.4-278.46,29.32l-8.92-170.37c0,0-118.34,32.88-142.61-13.46
							c-7.89-15.06,39.12-177.34,133.19-203.75c0,0,46.42-9.78,103.53-17.89c35.39-5.05,74.9-9.43,110.02-10.45
							c28.18-0.84,53.52,0.5,71.66,5.42c77.24,20.92,138.65,57.79,138.65,57.79s1.5,8.08,2.7,20.8c0,0,0,0,0,0.01
							C2337.17,1101.02,2338.07,1187.03,2280.23,1210.51z"></path>
        <path fill="#5147c4" d="M2203.63,1363.52c-48.78,22.29-144.9,52.4-278.46,29.32l-8.92-170.37c0,0-118.34,32.88-142.61-13.46
							c68.8,28.89,134.12,1.26,134.12,1.26v-44.85l8.55,36.6l98.52-172.22l107.19,46.54c0,0-34.1,12.83-35.91,23.43
							c-7.54,44.49-32.86,160.38-46.65,199.13c-13.78,38.76-50.92,51.21-47.91,72.83
							C1992.99,1381.95,2203.63,1363.52,2203.63,1363.52z"></path>
        <path fill="#804432" d="M2150.01,838.52c0.65,2.36,0.6,4.86,0.07,7.29c-0.54,2.42-1.67,4.87-3.61,6.75
								c-0.52,0.43-0.98,0.94-1.57,1.27c-0.6,0.32-1.18,0.68-1.79,0.95l-1.93,0.54c-0.63,0.2-1.3,0.13-1.94,0.17
								c-1.3,0.15-2.52-0.28-3.72-0.5c-1.16-0.4-2.27-0.94-3.3-1.53c1.24-0.15,2.38-0.08,3.5-0.17l1.65-0.2
								c0.54-0.02,1.06-0.15,1.56-0.3c2.05-0.42,3.76-1.38,5.15-2.74c1.4-1.36,2.52-3.12,3.46-5.1
								C2148.45,842.95,2149.23,840.81,2150.01,838.52z"></path>
        <path fill="#804432" d="M2145.29,852.91c-0.35,1.6-0.59,3.36-0.74,5.06c-0.14,1.72-0.16,3.45-0.03,5.16
								c0.12,1.72,0.44,3.42,1.1,5c0.65,1.57,1.69,3.04,3.23,3.96c-1.67-0.64-3.04-1.99-4-3.55c-0.98-1.57-1.62-3.33-2.04-5.12
								c-0.44-1.79-0.72-3.61-0.86-5.45c-0.14-1.85-0.2-3.64-0.1-5.57L2145.29,852.91z"></path>
        <path fill="#cedaf0" d="M2127.01,1018.09c-2.97,10.96-30.3,59.47-50.94,55.59c-35.23-6.6-61.7-71.68-65.7-86.31
								c35.38-5.04,74.9-9.42,110.02-10.45C2123.98,990.07,2128.99,1010.82,2127.01,1018.09z"></path>
        <path fill="#f98462" d="M2117.12,1004.95c0,0-18.5,62.43-46.88,47.81c-28.39-14.62-48.2-61.76-48.2-61.76l9.91-63.78
								c38.94-14.62,73.94,4.65,73.94,4.65l0.12,0.77l3.56,23.19L2117.12,1004.95z"></path>
        <path fill="#d16f52" d="M2109.58,955.83c-6.99,6.57-16.44,13.51-25.97,14.57c-27.22,2.99-44.13-17.31-44.13-17.31l66.55-20.44
								L2109.58,955.83z"></path>
        <polygon fill="#d16f52" points="2109.58 955.83 2114.4 987.2 2090.38 989.99 2089.39 958.77"></polygon>
        <path fill="#f98462" d="M2109.9,774.34c0,0,31.42,44.84,29.81,90c-1.61,45.17-12.92,80.97-66.87,90.34
							c-22.96,3.99-63.65,1.99-93.45-79.71C1949.58,793.27,2037.39,767.36,2109.9,774.34z"></path>
        <path fill="#3e1d41" d="M2137.03,836.71c0,0,14.36-41.12-16.65-71.34c0,0,23.77-35.54,2.01-41.18
							c-21.75-5.65-213.9-13.95-170.39,118.9c0,0,20.54-12.79,32.02,13.12c11.48,25.91,20.54,29.39,21.15,12.95
							c0.6-16.44-0.6-19.43,15.71-34.37c16.31-14.95,19.64-48.07,19.64-48.07s39,14.83,70.71-10.39
							C2122.96,793.48,2131.01,814.13,2137.03,836.71z"></path>
        <path fill="#f98462" d="M1973.42 841.42c0 0-41.85-11.62-27.81 39.19 14.04 50.81 56.74 21.59 54.73 13.62C1998.32 886.26 2000.12 861.6 1973.42 841.42zM1790.28 1224.93c-1.03 53.23 26.45 149.99 88.83 157.46 103.35-1.98 160.36-74.73 190.47-295.42l-35.99-85.69-117.35 221.19C1870.79 1236.56 1829.11 1236.19 1790.28 1224.93z"></path>
        <path fill="#d16f52" d="M2026.94,1001.29c0,0,3.98-28.57,15.24-32.88s33.67-2.66,33.67-2.66l10.27,7.64
							C2086.12,973.39,2041.75,1032.84,2026.94,1001.29z"></path>
        <g>
          <path fill="#f98462" d="M2029.02,1009.92c0,0,3.1-30.06,13.99-35.54s28.22-2.99,39.12-8.47c10.89-5.48,53.81-40.64,60.41-33.27
							c6.6,7.37-36.15,44.05-36.15,44.05s18.02,12.13,10.74,22.1c0,0,21.17,6.48,12.39,22.42c0,0,13.38,4.98,8,22.92
							s-7.17,30.39-20.39,34.37c-13.22,3.99-33.69,4.48-33.69,4.48l-15.14,6.06L2029.02,1009.92z"></path>
        </g>
        <g>
          <path fill="#d16f52" d="M2086.12,1076.26c0,0,23.91,1.25,31-5.98c7.09-7.22,5.6-13.7,5.6-13.7
							C2105.48,1063.56,2086.12,1076.26,2086.12,1076.26z"></path>
        </g>
        <g>
          <path fill="#f8bc50" d="M2099.62,2311.16c0,0,12.21,39.52,0,56.13c-12.21,16.61-170.66,48.49-230.74,0c0,0-6.6-17.27,3.3-32.88
							C1872.18,2334.41,2043.83,2302.2,2099.62,2311.16z"></path>
        </g>
        <g>
          <path fill="#622569" d="M1931.6,2192.6c0,0,89.79,5.3,139.3-3c0,0,17.17,22.26,19.81,63.11c2.64,40.85,2.97,40.52,8.91,58.45
							c5.94,17.93-78.89,44.84-227.44,23.25c0,0,5.94-28.4,35.16-52.81C1907.34,2281.6,1923.02,2211.2,1931.6,2192.6z"></path>
        </g>
        <g>
          <path fill="#cfb0f5" d="M1955.36,2257.08c-2.14,0-4.01-1.6-4.3-3.79c-0.32-2.39,1.35-4.59,3.73-4.91l63.73-8.57l-48.1-17.2
							c-2.26-0.81-3.44-3.31-2.64-5.58c0.8-2.27,3.29-3.47,5.54-2.65l65.03,23.25c1.89,0.68,3.07,2.56,2.86,4.57
							c-0.21,2-1.76,3.61-3.74,3.87l-81.53,10.96C1955.75,2257.07,1955.55,2257.08,1955.36,2257.08z"></path>
        </g>
        <g>
          <path fill="#cfb0f5" d="M2025.34,2266.38c-0.55,0-1.11-0.11-1.65-0.33l-64.04-26.4c-1.7-0.7-2.77-2.39-2.69-4.24
							c0.08-1.84,1.3-3.43,3.05-3.98l61.4-19.1c2.29-0.71,4.72,0.58,5.43,2.88c0.71,2.31-0.57,4.75-2.87,5.46l-49.83,15.5
							l52.84,21.78c2.22,0.91,3.28,3.47,2.37,5.7C2028.68,2265.36,2027.05,2266.38,2025.34,2266.38z"></path>
        </g>
        <g>
          <path fill="#5147c4" d="M2280.23,1210.51c-0.03,0.01-0.04,0.01-0.04,0.01l-53.48-37.37l4.44,56.45l-0.01-0.02l-16.33-59.48
							l-11.17-87.55l21.87,71.05l53.49,41.61c0,0,9.27-5.74,20.69-21.52c11.33-15.69,33.43-111.48,33.72-112.74
							C2337.17,1101.02,2338.07,1187.03,2280.23,1210.51z"></path>
        </g>
      </g>
    </g>
  </switch>
</svg>
