<svg width="32" height="32" viewBox="0 0 32 32" fill="none" xmlns="http://www.w3.org/2000/svg">
<path fill-rule="evenodd" clip-rule="evenodd" d="M20.7126 27.5535C20.6065 27.5535 20.5004 27.5005 20.412 27.4297C20.2883 27.2883 16.3633 19.4561 15.3025 17.0339C15.2141 17.0162 15.1257 16.9809 15.0373 16.9101C14.8782 16.751 14.8782 16.4858 15.0373 16.3267L15.5147 15.867C16.4694 14.9123 17.7423 14.2935 19.1037 14.1521C19.2982 14.1167 23.4707 18.5897 25.0795 20.4108C25.1679 20.3577 25.274 20.3224 25.3801 20.3224C25.61 20.3577 25.7691 20.5522 25.7514 20.7821C25.7337 20.9058 25.716 21.0473 25.6983 21.171C25.4862 22.3909 24.9028 23.5225 24.0364 24.3888L20.9955 27.4297C20.9247 27.5005 20.8187 27.5535 20.7126 27.5535Z" fill="#FF9E5C"/>
<path fill-rule="evenodd" clip-rule="evenodd" d="M16.5224 19.6329C16.3809 19.3501 16.2395 19.0672 16.1157 18.7843C16.8406 18.8904 18.255 18.855 19.4396 17.2461C19.581 17.0693 19.8462 17.034 20.023 17.1577C20.1998 17.2992 20.2352 17.5644 20.1114 17.7412C18.9445 19.297 17.5655 19.6329 16.5931 19.6329C16.5577 19.6329 16.54 19.6329 16.5224 19.6329Z" fill="#E68F54"/>
<path fill-rule="evenodd" clip-rule="evenodd" d="M15.9174 11.5891C15.6699 11.5891 15.4224 11.5007 15.2456 11.3239L13.4776 9.53825C13.3538 9.41449 13.3185 9.23769 13.3715 9.07857C13.4422 8.93713 13.6014 8.83105 13.7605 8.83105H18.0744C18.2335 8.83105 18.3926 8.93713 18.4457 9.07857C18.5164 9.23769 18.481 9.41449 18.3573 9.53825L16.5716 11.3239C16.3948 11.5007 16.165 11.5891 15.9174 11.5891Z" fill="#EB8423"/>
<path fill-rule="evenodd" clip-rule="evenodd" d="M19.6508 9.66174H12.1899C11.2705 9.66174 10.5103 8.9015 10.5103 7.98214V2.67814C10.5103 1.7411 11.2705 0.998535 12.1899 0.998535H19.6508C20.5702 0.998535 21.3304 1.7411 21.3304 2.67814V7.98214C21.3304 8.9015 20.5702 9.66174 19.6508 9.66174Z" fill="#FFA721"/>
<path fill-rule="evenodd" clip-rule="evenodd" d="M15.9215 7.91061C15.8154 7.91061 15.7093 7.85757 15.6209 7.78685C15.1436 7.29181 14.6485 6.97357 14.2065 6.67301C13.4286 6.16029 12.686 5.68293 12.686 4.56909C12.686 3.56133 13.517 2.74805 14.5071 2.74805C15.1966 2.74805 15.6209 3.03093 15.9215 3.41989C16.222 3.03093 16.6464 2.74805 17.3359 2.74805C18.326 2.74805 19.1569 3.56133 19.1569 4.56909C19.1569 5.68293 18.4144 6.16029 17.6364 6.67301C17.1944 6.97357 16.6994 7.29181 16.2044 7.78685C16.1336 7.85757 16.0276 7.91061 15.9215 7.91061Z" fill="#FF3131"/>
<path fill-rule="evenodd" clip-rule="evenodd" d="M15.162 31.1624C14.2604 31.1624 13.8184 30.5436 13.1642 29.8718C13.0228 29.7303 13.0051 29.5535 13.0758 29.4121C11.8736 28.3513 7.84252 24.5147 7.7718 24.4263C6.95852 23.4009 6.51652 22.0926 6.5342 20.7666C6.5342 20.413 6.87012 20.3069 7.11764 20.3953C8.14308 18.9809 11.6791 15.1974 12.1034 15.1974C13.3587 15.1797 14.5963 15.5686 15.5864 16.2935C15.8692 16.5057 18.2207 18.8394 18.6804 19.2814L21.297 21.8981C22.2517 22.8528 21.792 24.497 20.466 24.8153C20.9434 25.275 21.35 25.6286 21.35 26.4065C21.35 27.2374 20.7489 27.9446 19.9533 28.1038C20.3423 28.7756 20.2362 29.6419 19.6704 30.2077C18.9986 30.8795 17.9024 30.8795 17.2306 30.2077L16.8593 29.8364C16.6648 30.6143 15.9753 31.1624 15.162 31.1624Z" fill="#FBAC76"/>
<path fill-rule="evenodd" clip-rule="evenodd" d="M15.161 31.1606H15.1256H15.0903H15.0726C15.0549 31.1606 15.0372 31.1606 15.0019 31.1606H14.9665C14.9311 31.143 14.9135 31.143 14.8781 31.143H14.8604H14.8427L14.8074 31.1253H14.7897H14.772L14.7367 31.1076H14.7013L14.6659 31.0899C14.6129 31.0722 14.5775 31.0546 14.5245 31.0369H14.5068H14.4891V31.0192H14.4715C14.4361 31.0015 14.4184 31.0015 14.4007 30.9838L14.3831 30.9662H14.3654L14.3477 30.9485H14.33L14.3123 30.9308L14.277 30.9131C14.2416 30.8954 14.2063 30.8601 14.1709 30.8424L14.1532 30.8247C14.1355 30.8247 14.1179 30.807 14.1002 30.7894L14.0648 30.7717L14.0471 30.754V30.7363H14.0295C13.888 30.5772 13.9057 30.3297 14.0648 30.1882C14.2239 30.0114 14.4715 30.0114 14.6483 30.1882L15.5676 31.1253C15.5323 31.1253 15.4792 31.143 15.4262 31.143C15.3908 31.143 15.3731 31.143 15.3555 31.1606H15.3378H15.3201H15.3024H15.2847H15.2671H15.2494H15.2317H15.214H15.1963H15.1787H15.161ZM18.8561 30.6656C18.2903 30.7894 17.6715 30.6479 17.2295 30.2059L16.8583 29.8346L13.3576 26.334C13.1985 26.1749 13.1985 25.9274 13.3576 25.7506C13.5167 25.5914 13.7819 25.5914 13.9411 25.7506L18.8561 30.6656ZM20.6418 27.7838C20.4473 27.9429 20.1998 28.049 19.9523 28.102L16.4516 24.6014C16.2925 24.4422 16.2925 24.1947 16.4516 24.0179C16.6107 23.8588 16.8759 23.8588 17.0351 24.0179L20.5357 27.5186C20.6064 27.5893 20.6418 27.6954 20.6418 27.7838ZM21.1722 24.4599C20.9777 24.619 20.7302 24.7428 20.465 24.8135L18.0428 22.3737C17.866 22.2146 17.866 21.9494 18.0428 21.7902C18.2019 21.6311 18.4495 21.6311 18.6086 21.7902L21.0484 24.2301C21.1191 24.2831 21.1545 24.3715 21.1722 24.4599Z" fill="#E39C6B"/>
<path fill-rule="evenodd" clip-rule="evenodd" d="M8.6208 26.6714C8.39096 26.6714 8.1788 26.583 8.002 26.4238L7.24176 25.6459C7.06496 25.4868 6.97656 25.2746 6.97656 25.0448C6.97656 24.815 7.06496 24.6028 7.24176 24.4437L9.77 21.9154C10.0882 21.5972 10.654 21.5972 10.9722 21.9154L11.7502 22.6934C12.0861 23.0293 12.0861 23.5597 11.7502 23.8956L9.22192 26.4238C9.0628 26.583 8.85064 26.6714 8.6208 26.6714Z" fill="#FF9E5C"/>
<path fill-rule="evenodd" clip-rule="evenodd" d="M10.0177 28.085C9.78786 28.085 9.5757 27.9966 9.41658 27.8375L8.63866 27.0596C8.30274 26.7237 8.30274 26.1756 8.63866 25.8397L11.1669 23.3114C11.4851 22.9932 12.0509 22.9932 12.3691 23.3114L13.1471 24.0894C13.3062 24.2485 13.3946 24.4606 13.3946 24.6905C13.3946 24.9203 13.3062 25.1325 13.1471 25.3093L10.6188 27.8375C10.4597 27.9966 10.2475 28.085 10.0177 28.085Z" fill="#FF9E5C"/>
<path fill-rule="evenodd" clip-rule="evenodd" d="M11.4117 29.4815C11.1819 29.4815 10.9697 29.3931 10.8106 29.234L10.0327 28.4561C9.87356 28.2969 9.78516 28.0848 9.78516 27.8549C9.78516 27.6251 9.87356 27.4129 10.0327 27.2538L12.5609 24.7256C12.8968 24.3897 13.4449 24.3897 13.7808 24.7256L14.5588 25.4858C14.7002 25.6449 14.7886 25.8571 14.8063 26.0869L11.6946 29.4285C11.6062 29.4638 11.5178 29.4815 11.4117 29.4815Z" fill="#FF9E5C"/>
<path fill-rule="evenodd" clip-rule="evenodd" d="M12.9327 30.3832C12.7382 30.3832 12.5614 30.2948 12.42 30.171L11.6951 29.4285C11.4122 29.1456 11.4122 28.6859 11.6951 28.403L13.9051 26.1754C14.1879 25.9102 14.6653 25.9102 14.9305 26.1754L15.6731 26.9179C15.9559 27.2008 15.9559 27.6605 15.6731 27.9434L13.4631 30.171C13.3216 30.2948 13.1448 30.3832 12.9327 30.3832ZM14.0819 21.4194C13.6222 21.4194 13.1979 21.2426 12.862 20.9244C12.5437 20.5885 12.3669 20.1642 12.3669 19.7045C12.3669 19.2625 12.5437 18.8205 12.862 18.5022L15.2841 16.0801C15.3902 16.1508 15.4786 16.2215 15.5847 16.2922C15.7792 16.4337 17.0521 17.6713 17.9184 18.5376L17.6709 18.6437L16.2565 19.952L15.2841 20.9244C14.9659 21.2426 14.5415 21.4194 14.0819 21.4194Z" fill="#FF9E5C"/>
<path fill-rule="evenodd" clip-rule="evenodd" d="M26.9177 22.3212C26.5464 22.3212 26.1928 22.1798 25.9453 21.9146L18.2898 14.2768C17.7417 13.7288 17.7417 12.8624 18.2898 12.3144L20.7473 9.85684C21.0125 9.59164 21.3661 9.4502 21.7197 9.4502C22.091 9.4502 22.4446 9.59164 22.7098 9.85684L30.3476 17.5123C30.6128 17.7775 30.7542 18.1134 30.7542 18.4847C30.7542 18.856 30.6128 19.1919 30.3476 19.4571L27.8901 21.9146C27.6249 22.1798 27.2889 22.3212 26.9177 22.3212ZM4.92374 22.8163C4.55246 22.8163 4.21654 22.6748 3.95134 22.4096L1.49382 19.9344C0.945744 19.404 0.945744 18.5377 1.49382 17.9896L9.13158 10.3342C9.39678 10.0867 9.75038 9.94524 10.1217 9.94524C10.4753 9.94524 10.8289 10.0867 11.0941 10.3342L13.5516 12.8094C13.8168 13.0569 13.9582 13.4105 13.9582 13.7818C13.9582 14.1531 13.8168 14.489 13.5516 14.7542L5.89614 22.4096C5.64862 22.6748 5.29502 22.8163 4.92374 22.8163Z" fill="#1AA1FF"/>
<path fill-rule="evenodd" clip-rule="evenodd" d="M8.4418 26.6526C8.28268 26.6349 8.14124 26.5642 8.03516 26.4404L11.7126 22.7453C11.7303 22.7276 11.748 22.71 11.7656 22.71C11.8717 22.816 11.9424 22.9575 11.9778 23.0989L8.4418 26.6526ZM9.83852 28.067C9.6794 28.0316 9.53796 27.9609 9.43188 27.8372L13.1447 24.089C13.2684 24.2128 13.3392 24.3542 13.3745 24.4956L9.83852 28.067ZM11.412 29.4814C11.306 29.4814 11.1999 29.4637 11.0938 29.4107L14.7359 25.7509C14.7712 25.857 14.8066 25.9631 14.8066 26.0868L11.7126 29.4107L11.6949 29.4284C11.6065 29.4637 11.5181 29.4814 11.412 29.4814Z" fill="#E68F54"/>
</svg>
