<svg width="32" height="32" viewBox="0 0 32 32" fill="none" xmlns="http://www.w3.org/2000/svg">
<g clip-path="url(#clip0_824_175680)">
<path d="M30.5791 11.0926C30.741 11.5721 28.9023 15.3635 28.908 15.8696C28.9138 16.3756 30.8381 20.1243 30.6872 20.6073C30.5363 21.0904 26.8203 23.0769 26.5275 23.4897C26.2347 23.9025 25.5881 28.0663 25.1821 28.3684C24.7761 28.6705 20.6021 28.0934 20.1225 28.2553C19.643 28.4171 16.6725 31.4057 16.1665 31.4114C15.6604 31.4172 12.6228 28.4969 12.1397 28.346C11.6567 28.1951 7.49684 28.8668 7.08406 28.574C6.67128 28.2813 5.93026 24.1332 5.62816 23.7272C5.32606 23.3212 1.56584 21.4195 1.40399 20.94C1.24215 20.4605 3.08081 16.6691 3.07506 16.1631C3.06931 15.657 1.14497 11.9084 1.29588 11.4253C1.44679 10.9423 5.16283 8.95572 5.45563 8.54294C5.74842 8.13016 6.395 3.96634 6.80102 3.66425C7.20704 3.36215 11.3811 3.93921 11.8606 3.77737C12.3401 3.61552 15.3106 0.626971 15.8166 0.621221C16.3227 0.615471 19.3603 3.53575 19.8434 3.68666C20.3264 3.83757 24.4863 3.16581 24.899 3.4586C25.3118 3.7514 26.0528 7.89945 26.3549 8.30547C26.657 8.71149 30.4173 10.6131 30.5791 11.0926Z" fill="#5C92F2"/>
<path d="M25.6817 16.1534C25.6817 18.7115 24.6655 21.1649 22.8566 22.9738C21.0477 24.7827 18.5943 25.7989 16.0362 25.7989C14.7695 25.7989 13.5152 25.5494 12.345 25.0647C11.1747 24.58 10.1114 23.8695 9.21574 22.9738C8.32007 22.0781 7.60958 21.0148 7.12485 19.8446C6.64011 18.6743 6.39062 17.42 6.39063 16.1534C6.39063 13.5952 7.40685 11.1418 9.21574 9.33293C11.0246 7.52404 13.478 6.50781 16.0362 6.50781C18.5943 6.50781 21.0477 7.52404 22.8566 9.33293C24.6655 11.1418 25.6817 13.5952 25.6817 16.1534Z" fill="#CCDDFB"/>
<path d="M19.9021 10.8862C19.2791 10.9044 18.6875 11.1641 18.2525 11.6106L14.7014 15.1618L13.7801 14.3075C13.549 14.0929 13.2779 13.926 12.9823 13.8162C12.6866 13.7064 12.3723 13.6559 12.0572 13.6676C11.4207 13.6913 10.8197 13.9667 10.3864 14.4335C10.1718 14.6646 10.0049 14.9357 9.8951 15.2313C9.78531 15.5269 9.73483 15.8413 9.74653 16.1564C9.77015 16.7929 10.0456 17.3939 10.5124 17.8272L13.1305 20.2524C13.5854 20.6755 14.1866 20.9057 14.8078 20.8947C15.4289 20.8837 16.0216 20.6323 16.4612 20.1933L21.6462 15.0043C21.9923 14.6671 22.2284 14.2332 22.3239 13.7595C22.4193 13.2858 22.3696 12.7944 22.1811 12.3494C21.9927 11.9045 21.6743 11.5268 21.2677 11.2657C20.8611 11.0047 20.3851 10.8724 19.9021 10.8862Z" fill="#5C92F2"/>
</g>
<defs>
<clipPath id="clip0_824_175680">
<rect width="32" height="32" fill="white"/>
</clipPath>
</defs>
</svg>
